<?xml version="1.0"?>
<svg xmlns="http://www.w3.org/2000/svg" height="512px" viewBox="-68 0 512 512.00025" width="512px" class=""><g><path d="m167.128906 214.011719h-.78125v-41.191407c0-4.222656-3.421875-7.648437-7.648437-7.648437h-11.546875v-60.027344c0-4.222656-3.425782-7.648437-7.652344-7.648437-4.222656 0-7.648438 3.425781-7.648438 7.648437v60.027344h-88.921874v-139.363281c0-3.503906 1.65625-6.652344 4.535156-8.648438 2.882812-1.992187 6.414062-2.421875 9.691406-1.183594l67.902344 25.652344c4.0625 1.535156 6.792968 5.488282 6.792968 9.835938v23.082031c0 4.226563 3.425782 7.648437 7.648438 7.648437 4.226562 0 7.652344-3.421874 7.652344-7.648437v-23.082031c0-10.671875-6.707032-20.375-16.6875-24.144532l-67.898438-25.65625c-7.933594-2.992187-16.824218-1.90625-23.796875 2.914063-6.972656 4.820313-11.136719 12.753906-11.136719 21.230469v139.363281h-11.546874c-4.226563 0-7.648438 3.425781-7.648438 7.648437v41.191407h-.789062c-4.226563 0-7.648438 3.425781-7.648438 7.648437v250.882813c0 21.757812 17.699219 39.457031 39.457031 39.457031h95.863281c21.757813 0 39.457032-17.699219 39.457032-39.457031v-250.882813c0-4.222656-3.421875-7.648437-7.648438-7.648437zm-7.648437 88.152343h-144.183594v-21.023437h144.183594zm-144.183594-36.320312v-36.535156h144.183594v36.535156zm8.4375-85.375h127.316406v33.542969h-127.316406zm111.585937 316.234375h-95.863281c-13.324219 0-24.160156-10.839844-24.160156-24.160156v-155.082031h144.183594v155.082031c0 13.320312-10.839844 24.160156-24.160157 24.160156zm0 0" data-original="#000000" class="active-path" data-old_color="#FFFCFC" fill="#FFFDFD"/><path d="m369.136719 254.808594h-159.480469c-4.222656 0-7.648438 3.425781-7.648438 7.648437v164.308594c0 4.222656 3.425782 7.648437 7.648438 7.648437 4.226562 0 7.648438-3.425781 7.648438-7.648437v-68.507813h144.183593v114.285157c0 13.320312-10.835937 24.160156-24.15625 24.160156h-95.867187c-13.320313 0-24.15625-10.839844-24.15625-24.160156v-15.179688c0-4.226562-3.425782-7.648437-7.652344-7.648437-4.222656 0-7.648438 3.421875-7.648438 7.648437v15.179688c0 21.757812 17.703126 39.457031 39.457032 39.457031h95.867187c21.753907 0 39.453125-17.699219 39.453125-39.457031v-210.085938c0-4.222656-3.421875-7.648437-7.648437-7.648437zm-7.648438 15.296875v36.535156h-144.183593v-36.535156zm-144.183593 72.855469v-21.023438h144.183593v21.023438zm0 0" data-original="#000000" class="active-path" data-old_color="#FFFCFC" fill="#FFFDFD"/></g> </svg>
